<?xml version="1.0" encoding="utf-8"?>
<!-- Generator: Adobe Illustrator 24.1.0, SVG Export Plug-In . SVG Version: 6.00 Build 0)  -->
<svg version="1.1" id="Layer_1" xmlns="http://www.w3.org/2000/svg" xmlns:xlink="http://www.w3.org/1999/xlink" x="0px" y="0px"
	 viewBox="0 0 735.1 735.1" style="enable-background:new 0 0 735.1 735.1;" xml:space="preserve">
<style type="text/css">
	.st0{opacity:0.4;fill:#FFFFFF;}
</style>
<circle class="st0" cx="367.6" cy="367.6" r="358.5"/>
<g>
	<path d="M543.6,383.6h-352c-8.8,0-16-7.2-16-16s7.2-16,16-16h352c8.8,0,16,7.2,16,16S552.4,383.6,543.6,383.6z"/>
	<path d="M543.6,260.9h-352c-8.8,0-16-7.2-16-16s7.2-16,16-16h352c8.8,0,16,7.2,16,16S552.4,260.9,543.6,260.9z"/>
	<path d="M543.6,506.2h-352c-8.8,0-16-7.2-16-16s7.2-16,16-16h352c8.8,0,16,7.2,16,16S552.4,506.2,543.6,506.2z"/>
</g>
</svg>
